<svg id="_x31__x2C_5" enable-background="new 0 0 24 24" height="512" viewBox="0 0 24 24" width="512" xmlns="http://www.w3.org/2000/svg"><path d="m16.81 13h-12.06c-.414 0-.75-.336-.75-.75v-4.5c0-.414.336-.75.75-.75h14.5c.414 0 .75.336.75.75v2.25c0 .414-.336.75-.75.75s-.75-.336-.75-.75v-1.5h-13v3h11.31c.414 0 .75.336.75.75s-.336.75-.75.75z"/><path d="m13.82 15.99h-9.02c-.414 0-.75-.336-.75-.75s.336-.75.75-.75h9.02c.414 0 .75.336.75.75s-.336.75-.75.75z"/><path d="m10.84 18.99h-6.04c-.414 0-.75-.336-.75-.75s.336-.75.75-.75h6.04c.414 0 .75.336.75.75s-.336.75-.75.75z"/><path d="m12.527 24c-.197 0-.389-.078-.53-.22-.173-.173-.251-.419-.208-.661l.53-3.005c.027-.151.1-.291.208-.4l7.425-7.424c.316-.316.651-.513.996-.585.477-.1.939.045 1.302.409l1.237 1.237c.682.682.682 1.792 0 2.475l-7.424 7.425c-.109.109-.249.182-.4.208l-3.005.53c-.044.007-.087.011-.131.011zm3.006-1.28h.01zm-1.778-2.112-.303 1.717 1.717-.303 7.257-7.258c.097-.098.097-.256 0-.354l-1.228-1.228c-.01.019-.085.067-.186.167z"/><path d="m9.83 22h-7.08c-1.517 0-2.75-1.233-2.75-2.75v-16.5c0-1.517 1.233-2.75 2.75-2.75h18.5c1.517 0 2.75 1.233 2.75 2.75v7.29c0 .414-.336.75-.75.75s-.75-.336-.75-.75v-7.29c0-.689-.561-1.25-1.25-1.25h-18.5c-.689 0-1.25.561-1.25 1.25v16.5c0 .689.561 1.25 1.25 1.25h7.08c.414 0 .75.336.75.75s-.336.75-.75.75z"/><path d="m23.25 5h-22.5c-.414 0-.75-.336-.75-.75s.336-.75.75-.75h22.5c.414 0 .75.336.75.75s-.336.75-.75.75z"/></svg>