<?xml version="1.0" encoding="iso-8859-1"?>
<!-- Generator: Adobe Illustrator 19.0.0, SVG Export Plug-In . SVG Version: 6.00 Build 0)  -->
<svg version="1.1" id="Layer_1" xmlns="http://www.w3.org/2000/svg" xmlns:xlink="http://www.w3.org/1999/xlink" x="0px" y="0px"
	 viewBox="0 0 512 512" style="enable-background:new 0 0 512 512;" xml:space="preserve">
<g>
	<g>
		<path d="M464.372,214.326v-96.7L346.747,0H47.628v214.326H23.814v226.233h23.814V512h416.744v-71.442h23.814V214.326H464.372z
			 M357.209,60.979l46.184,46.184h-46.184V60.979z M83.349,35.721h238.14v107.163h107.163v71.442H83.349V35.721z M428.651,476.279
			H83.349v-35.721h345.302V476.279z M452.465,404.837H59.535V250.047h392.93V404.837z"/>
	</g>
</g>
<g>
	<g>
		<polygon points="153.874,287.077 153.874,316.547 123.549,316.547 123.549,287.077 105.975,287.077 105.975,363.163 
			123.549,363.163 123.549,331.978 153.874,331.978 153.874,363.163 171.451,363.163 171.451,287.077 		"/>
	</g>
</g>
<g>
	<g>
		<polygon points="185.381,287.077 185.381,302.509 208.636,302.509 208.636,363.163 226.21,363.163 226.21,302.509 
			249.357,302.509 249.357,287.077 		"/>
	</g>
</g>
<g>
	<g>
		<polygon points="321.905,287.077 302.079,326.835 282.362,287.077 263.287,287.077 263.287,363.163 280.862,363.163 
			280.862,317.619 297.365,350.732 306.795,350.732 323.298,317.619 323.298,363.163 340.873,363.163 340.873,287.077 		"/>
	</g>
</g>
<g>
	<g>
		<polygon points="378.378,347.731 378.378,287.077 360.803,287.077 360.803,363.163 415.242,363.163 415.242,347.731 		"/>
	</g>
</g>
<g>
</g>
<g>
</g>
<g>
</g>
<g>
</g>
<g>
</g>
<g>
</g>
<g>
</g>
<g>
</g>
<g>
</g>
<g>
</g>
<g>
</g>
<g>
</g>
<g>
</g>
<g>
</g>
<g>
</g>
</svg>
